<svg width="1439" height="157" viewBox="0 0 1439 157" fill="none" xmlns="http://www.w3.org/2000/svg">
<path d="M1439 31.5908L1396.8 47.3061C1354.6 63.0214 1076.4 83.7751 992 110C907.6 135.832 729.708 168.117 645.308 152.107C560.908 136.687 464.4 113.421 380 97.9999C295.6 81.99 103.308 73.8257 18.9083 68.2271C-65.4917 63.0214 42.2 15.8755 0 0.160233H42.2C84.4 0.160233 168.8 0.160233 253.2 0.160233C337.6 0.160233 422 0.160233 506.4 0.160233C590.8 0.160233 675.2 0.160233 759.6 0.160233C844 0.160233 928.4 0.160233 1012.8 0.160233C1097.2 0.160233 1354.6 0.160233 1396.8 0.160233H1439V31.5908Z" fill="#180734"/>
</svg>
