<svg width="183" height="200" viewBox="0 0 183 200" fill="none" xmlns="http://www.w3.org/2000/svg">
<mask id="mask0_5_288" style="mask-type:luminance" maskUnits="userSpaceOnUse" x="0" y="0" width="183" height="200">
<path d="M182.282 0.86853H0V199.891H182.282V0.86853Z" fill="white"/>
</mask>
<g mask="url(#mask0_5_288)">
<path d="M0.144005 0.981891C0.675005 0.957292 1.209 0.962212 1.736 0.903173C2.845 0.777224 3.27 1.19837 3.224 2.32895C3.155 3.97809 3.184 4.01745 1.494 3.98695C1.044 3.97908 0.594005 3.94267 0.144005 3.91905V0.981891Z" fill="#8343E8"/>
<path d="M0.144005 20.5648C0.675005 20.5402 1.209 20.5451 1.736 20.4851C2.844 20.3601 3.271 20.7803 3.223 21.9109C3.154 23.559 3.185 23.5964 1.494 23.5699C1.044 23.563 0.594005 23.5256 0.144005 23.502V20.5648Z" fill="#8343E8"/>
<path d="M0.144005 40.1479C0.675005 40.1233 1.209 40.1282 1.736 40.0691C2.844 39.9442 3.27 40.3643 3.223 41.4949C3.154 43.1421 3.186 43.1795 1.494 43.1529C1.044 43.146 0.594005 43.1086 0.144005 43.085V40.1479Z" fill="#8343E8"/>
<path d="M0.144005 59.7309C0.675005 59.7063 1.21 59.7112 1.737 59.6512C2.845 59.5263 3.271 59.9464 3.224 61.078C3.155 62.7261 3.186 62.7635 1.494 62.737C1.044 62.7301 0.594005 62.6917 0.144005 62.6681V59.7309Z" fill="#8343E8"/>
<path d="M0.144005 79.314C0.675005 79.2894 1.209 79.2943 1.736 79.2353C2.845 79.1103 3.27 79.5305 3.223 80.661C3.155 82.3092 3.189 82.3436 1.494 82.32C1.044 82.3131 0.594005 82.2748 0.144005 82.2511V79.314Z" fill="#8343E8"/>
<path d="M0.144005 98.897C0.675005 98.8724 1.209 98.8774 1.736 98.8173C2.845 98.6924 3.271 99.1125 3.223 100.244C3.154 101.892 3.185 101.93 1.494 101.902C1.044 101.895 0.594005 101.858 0.144005 101.834V98.897Z" fill="#8343E8"/>
<path d="M0.144005 118.48C0.675005 118.455 1.209 118.46 1.736 118.401C2.844 118.276 3.27 118.697 3.223 119.827C3.154 121.474 3.186 121.512 1.494 121.485C1.044 121.478 0.594005 121.441 0.144005 121.417V118.48Z" fill="#8343E8"/>
<path d="M0.144005 138.063C0.675005 138.039 1.21 138.043 1.737 137.983C2.845 137.858 3.271 138.279 3.224 139.41C3.155 141.058 3.186 141.096 1.494 141.069C1.044 141.062 0.594005 141.024 0.144005 141V138.063Z" fill="#8343E8"/>
<path d="M0.144005 157.646C0.675005 157.622 1.21 157.627 1.737 157.567C2.847 157.441 3.271 157.862 3.224 158.993C3.155 160.643 3.191 160.677 1.494 160.652C1.044 160.646 0.594005 160.608 0.144005 160.583V157.646Z" fill="#8343E8"/>
<path d="M0.144005 177.229C0.675005 177.205 1.21 177.21 1.737 177.15C2.846 177.024 3.271 177.445 3.224 178.576C3.155 180.225 3.189 180.26 1.494 180.235C1.044 180.228 0.594005 180.19 0.144005 180.166V177.229Z" fill="#8343E8"/>
<path d="M0.144002 196.811C3.318 196.523 3.425 196.629 3.128 199.749C2.128 199.749 0.750002 200.131 0.253002 199.641C-0.243998 199.151 0.144002 197.79 0.144002 196.811Z" fill="#8343E8"/>
<path d="M20.035 199.749C20.01 199.307 19.965 198.864 19.963 198.422C19.956 196.749 19.977 196.811 21.524 196.715C22.788 196.636 23.264 197.092 23.1 198.302C23.035 198.779 23.044 199.266 23.019 199.749H20.035Z" fill="#8343E8"/>
<path d="M39.927 199.749C39.902 199.307 39.857 198.864 39.855 198.422C39.848 196.749 39.869 196.811 41.416 196.715C42.68 196.636 43.156 197.092 42.992 198.302C42.927 198.779 42.936 199.266 42.911 199.749H39.927Z" fill="#8343E8"/>
<path d="M59.818 199.749C59.793 199.307 59.748 198.864 59.746 198.422C59.739 196.749 59.76 196.811 61.307 196.715C62.571 196.636 63.047 197.092 62.883 198.302C62.818 198.779 62.827 199.266 62.802 199.749H59.818Z" fill="#8343E8"/>
<path d="M79.709 199.749C79.684 199.307 79.639 198.864 79.637 198.422C79.63 196.749 79.651 196.811 81.198 196.715C82.462 196.636 82.938 197.092 82.774 198.302C82.709 198.779 82.718 199.266 82.693 199.749H79.709Z" fill="#8343E8"/>
<path d="M99.6 199.749C99.575 199.307 99.53 198.864 99.528 198.422C99.521 196.749 99.542 196.811 101.089 196.715C102.353 196.636 102.829 197.092 102.665 198.302C102.6 198.779 102.609 199.266 102.584 199.749H99.6Z" fill="#8343E8"/>
<path d="M119.492 199.749C119.467 199.307 119.422 198.864 119.42 198.422C119.413 196.749 119.434 196.811 120.982 196.715C122.245 196.636 122.721 197.092 122.557 198.302C122.492 198.779 122.501 199.266 122.476 199.749H119.492Z" fill="#8343E8"/>
<path d="M139.383 199.749C139.358 199.307 139.313 198.864 139.311 198.422C139.304 196.749 139.325 196.811 140.872 196.715C142.136 196.636 142.612 197.092 142.448 198.302C142.383 198.779 142.392 199.266 142.367 199.749H139.383Z" fill="#8343E8"/>
<path d="M159.275 199.749C159.25 199.307 159.205 198.864 159.203 198.422C159.196 196.749 159.217 196.811 160.764 196.715C162.028 196.636 162.504 197.092 162.34 198.302C162.275 198.779 162.284 199.266 162.259 199.749H159.275Z" fill="#8343E8"/>
<path d="M179.166 199.749C179.141 199.307 179.097 198.864 179.094 198.422C179.086 196.749 179.107 196.811 180.655 196.715C181.918 196.636 182.395 197.092 182.231 198.302C182.167 198.779 182.175 199.266 182.15 199.749H179.166Z" fill="#8343E8"/>
<path d="M19.961 2.40852C19.966 0.929603 20 0.987657 21.6 0.881388C22.98 0.788894 23.094 1.458 23.129 2.55414C23.168 3.79592 22.629 4.06651 21.516 4.01338C19.989 3.94056 19.957 3.96418 19.962 2.41147" fill="#8343E8"/>
<path d="M42.984 2.68225C43.274 3.88861 42.454 3.96732 41.342 4.02735C39.957 4.10213 39.856 3.43106 39.819 2.34475C39.777 1.09805 40.324 0.838285 41.436 0.89142C42.957 0.96325 42.99 0.942587 42.984 2.68225Z" fill="#8343E8"/>
<path d="M61.262 3.99273C59.762 3.99273 59.824 3.94648 59.716 2.37507C59.623 1.01128 60.316 0.911902 61.416 0.875495C62.683 0.834168 62.945 1.37437 62.892 2.46855C62.819 3.96911 62.844 3.99863 61.26 3.99273" fill="#8343E8"/>
<path d="M81.154 3.99272C79.654 3.99272 79.716 3.94647 79.608 2.37507C79.514 1.0103 80.208 0.911898 81.308 0.875491C82.576 0.83318 82.838 1.37338 82.784 2.46756C82.712 3.96615 82.734 3.99863 81.154 3.99272Z" fill="#8343E8"/>
<path d="M102.659 2.48348C102.659 3.97224 102.619 3.91221 101.031 4.01947C99.662 4.11196 99.522 3.4645 99.492 2.35852C99.458 1.12953 99.965 0.835325 101.092 0.890428C102.626 0.96521 102.66 0.94061 102.656 2.48348" fill="#8343E8"/>
<path d="M119.419 2.21264C119.125 0.992514 119.968 0.933476 121.068 0.875421C122.463 0.793751 122.54 1.48942 122.584 2.56392C122.636 3.82734 122.058 4.05858 120.96 4.00938C119.442 3.9405 119.411 3.96018 119.419 2.21264Z" fill="#8343E8"/>
<path d="M142.442 2.45688C142.442 3.96433 142.408 3.9968 140.842 3.99188C139.336 3.99188 139.375 3.95154 139.291 2.38407C139.227 1.18559 139.691 0.82939 140.856 0.888428C142.409 0.966162 142.446 0.938611 142.446 2.45688" fill="#8343E8"/>
<path d="M160.491 3.99168C159.191 4.2918 159.235 3.36588 159.172 2.3327C159.094 1.06042 159.7 0.843949 160.8 0.892164C162.313 0.960058 162.344 0.941362 162.337 2.50982C162.33 3.97004 162.293 4.00349 160.495 3.99168" fill="#8343E8"/>
<path d="M179.092 2.41737C179.092 0.933541 179.136 0.897134 180.713 0.907958C182.156 0.918782 182.161 1.00636 182.248 2.56005C182.318 3.80478 181.754 4.0616 180.648 4.00944C179.122 3.9386 179.089 3.96025 179.094 2.41737" fill="#8343E8"/>
<path d="M23.094 22.0811C23.088 23.5521 23.045 23.4961 21.449 23.6023C20.059 23.6948 19.969 23.0119 19.927 21.9296C19.879 20.6721 20.441 20.428 21.547 20.4782C23.072 20.5481 23.101 20.5245 23.094 22.086" fill="#8343E8"/>
<path d="M41.655 20.492C42.881 20.2057 42.96 21.0145 43.021 22.1087C43.097 23.4724 42.415 23.5718 41.311 23.6082C40.043 23.6505 39.782 23.1094 39.835 22.0152C39.908 20.5146 39.883 20.4851 41.655 20.492Z" fill="#8343E8"/>
<path d="M61.3 23.5758C59.769 23.5758 59.736 23.5413 59.74 22.0014C59.745 20.5176 59.781 20.5569 61.374 20.4733C62.592 20.4103 62.953 20.8669 62.893 22.0152C62.813 23.5443 62.842 23.5807 61.3 23.5807" fill="#8343E8"/>
<path d="M81.31 23.5364C80.104 23.7686 79.534 23.3977 79.61 22.0909C79.702 20.5294 79.657 20.5422 81.171 20.4753C82.263 20.4261 82.871 20.6425 82.795 21.9148C82.731 22.949 82.774 23.8739 81.31 23.5364Z" fill="#8343E8"/>
<path d="M101.132 20.5481C102.663 20.1948 102.613 21.1178 102.689 22.151C102.789 23.564 101.989 23.5492 100.942 23.6063C99.611 23.6801 99.524 23.008 99.498 21.9768C99.466 20.7183 99.923 20.2214 101.132 20.5481Z" fill="#8343E8"/>
<path d="M122.549 22.2641C122.838 23.4695 122.02 23.5502 120.907 23.6102C119.522 23.685 119.421 23.0129 119.384 21.9266C119.341 20.6789 119.884 20.4211 121.001 20.4733C122.527 20.5461 122.556 20.5205 122.549 22.2641Z" fill="#8343E8"/>
<path d="M140.616 23.5748C139.343 23.87 139.332 22.9903 139.28 21.9325C139.218 20.6898 139.769 20.4202 140.887 20.4733C142.413 20.5471 142.447 20.5254 142.441 22.0742C142.441 23.5502 142.403 23.5836 140.616 23.5748Z" fill="#8343E8"/>
<path d="M160.8 20.491C162.312 20.491 162.251 20.5304 162.359 22.0949C162.452 23.4419 161.796 23.5797 160.672 23.6092C159.423 23.6417 159.126 23.1408 159.181 22.029C159.256 20.5205 159.232 20.4871 160.8 20.491Z" fill="#8343E8"/>
<path d="M182.223 22.2661C182.512 23.4724 181.69 23.5502 180.581 23.6102C179.196 23.686 179.094 23.0198 179.058 21.9286C179.017 20.6819 179.567 20.4221 180.678 20.4743C182.198 20.5451 182.23 20.5245 182.223 22.2661Z" fill="#8343E8"/>
<path d="M19.962 41.3798C19.669 40.1636 20.506 40.1006 21.609 40.0396C23 39.9609 23.085 40.6477 23.127 41.7271C23.177 42.9876 22.606 43.2247 21.505 43.1746C19.984 43.1057 19.955 43.1283 19.962 41.3798Z" fill="#8343E8"/>
<path d="M41.4 43.1588C39.875 43.1588 39.933 43.1214 39.826 41.5697C39.735 40.2423 40.354 40.0613 41.499 40.0396C42.729 40.016 43.062 40.4765 43.004 41.6051C42.927 43.1244 42.951 43.1618 41.404 43.1588" fill="#8343E8"/>
<path d="M62.875 41.8551C63.175 43.0762 62.325 43.1342 61.226 43.1933C59.826 43.2739 59.753 42.5793 59.709 41.5038C59.658 40.2394 60.235 40.0081 61.334 40.0583C62.854 40.1272 62.883 40.1046 62.875 41.8551Z" fill="#8343E8"/>
<path d="M79.636 41.3847C79.347 40.1784 80.166 40.0996 81.278 40.0396C82.663 39.9639 82.764 40.6359 82.801 41.7222C82.843 42.9689 82.301 43.2287 81.184 43.1755C79.663 43.1037 79.629 43.1234 79.636 41.3847Z" fill="#8343E8"/>
<path d="M101.135 40.0741C102.635 40.0741 102.578 40.1183 102.685 41.6868C102.779 43.0457 102.099 43.1569 100.985 43.1913C99.722 43.2316 99.45 42.6993 99.504 41.6032C99.578 40.1016 99.556 40.0682 101.131 40.0741" fill="#8343E8"/>
<path d="M120.965 43.1588C119.439 43.1588 119.498 43.1214 119.391 41.5697C119.3 40.2423 119.919 40.0613 121.064 40.0396C122.294 40.016 122.627 40.4765 122.564 41.6051C122.487 43.1244 122.512 43.1618 120.965 43.1588Z" fill="#8343E8"/>
<path d="M142.441 41.8551C142.741 43.0762 141.891 43.1342 140.792 43.1933C139.392 43.2739 139.319 42.5793 139.275 41.5038C139.224 40.2394 139.801 40.0081 140.9 40.0583C142.42 40.1272 142.449 40.1046 142.441 41.8551Z" fill="#8343E8"/>
<path d="M162.292 41.7084C162.634 43.1283 161.733 43.1342 160.662 43.1844C159.397 43.2464 159.129 42.6973 159.183 41.5992C159.257 40.0977 159.237 40.139 160.811 40.0495C162.118 39.9747 162.54 40.4991 162.292 41.7065" fill="#8343E8"/>
<path d="M180.9 40.075C182.144 39.7799 182.19 40.6231 182.256 41.7006C182.34 43.0781 181.63 43.148 180.54 43.1923C179.257 43.2434 179.021 42.6757 179.072 41.5943C179.143 40.1065 179.132 40.0672 180.9 40.075Z" fill="#8343E8"/>
<path d="M21.472 62.7419C19.984 62.736 20.04 62.6927 19.933 61.1163C19.839 59.7388 20.549 59.667 21.642 59.6237C22.927 59.5725 23.161 60.1412 23.11 61.2236C23.04 62.7202 23.062 62.7478 21.472 62.7419Z" fill="#8343E8"/>
<path d="M41.372 62.7409C39.872 62.735 39.933 62.6937 39.825 61.1232C39.731 59.7594 40.425 59.6601 41.525 59.6237C42.792 59.5823 43.056 60.1156 43.002 61.2147C42.928 62.7173 42.953 62.7468 41.371 62.7409" fill="#8343E8"/>
<path d="M61.3 62.7419C59.769 62.7419 59.736 62.7074 59.741 61.1616C59.741 59.6788 59.781 59.7181 61.374 59.6345C62.593 59.5715 62.953 60.0281 62.893 61.1764C62.814 62.7065 62.843 62.7429 61.3 62.7419Z" fill="#8343E8"/>
<path d="M79.636 60.9599C79.336 59.7378 80.188 59.6876 81.286 59.6227C82.686 59.541 82.758 60.2377 82.802 61.3122C82.853 62.5766 82.276 62.8068 81.177 62.7576C79.659 62.6887 79.629 62.7084 79.636 60.9599Z" fill="#8343E8"/>
<path d="M99.526 61.1577C99.526 59.6817 99.57 59.7368 101.163 59.6306C102.543 59.5381 102.663 60.2052 102.692 61.3033C102.731 62.5431 102.199 62.8167 101.08 62.7635C99.554 62.6907 99.521 62.7133 99.526 61.1616" fill="#8343E8"/>
<path d="M120.965 62.7419C119.439 62.7419 119.498 62.7045 119.391 61.1518C119.299 59.8234 119.92 59.6443 121.064 59.6217C122.295 59.5981 122.627 60.0596 122.57 61.1882C122.492 62.7074 122.517 62.7448 120.965 62.7419Z" fill="#8343E8"/>
<path d="M142.441 61.2364C142.441 62.7202 142.398 62.6622 140.808 62.7684C139.434 62.86 139.308 62.2027 139.274 61.1026C139.238 59.8677 139.759 59.5853 140.883 59.6394C142.411 59.7122 142.446 59.6906 142.441 61.2364Z" fill="#8343E8"/>
<path d="M162.293 61.3112C162.636 62.7557 161.687 62.6946 160.643 62.7704C159.202 62.8747 159.231 62.0728 159.17 61.0465C159.093 59.729 159.792 59.6689 160.829 59.6266C162.162 59.5646 162.529 60.1294 162.293 61.3112Z" fill="#8343E8"/>
<path d="M179.091 61.1498C179.097 59.6857 179.146 59.7368 180.741 59.6306C182.134 59.539 182.215 60.2347 182.257 61.3112C182.307 62.5716 181.736 62.8078 180.635 62.7586C179.115 62.6897 179.084 62.7104 179.091 61.1498Z" fill="#8343E8"/>
<path d="M23.093 81.0202C23.393 82.2413 22.543 82.2944 21.444 82.3584C20.044 82.4391 19.972 81.7444 19.928 80.6689C19.876 79.4045 20.453 79.1733 21.552 79.2234C23.071 79.2923 23.101 79.2717 23.093 81.0202Z" fill="#8343E8"/>
<path d="M42.984 81.0468C43.284 82.3131 42.368 82.2944 41.307 82.3535C40.025 82.4233 39.785 81.8457 39.836 80.7604C39.906 79.2628 39.883 79.2343 41.472 79.2412C42.962 79.2471 42.995 79.2825 42.984 81.0468Z" fill="#8343E8"/>
<path d="M62.876 80.8195C62.871 82.3023 62.833 82.2442 61.243 82.3515C59.868 82.443 59.743 81.7847 59.709 80.6846C59.673 79.4498 60.194 79.1674 61.318 79.2215C62.845 79.2953 62.881 79.2736 62.876 80.8195Z" fill="#8343E8"/>
<path d="M81.159 82.3249C79.659 82.3249 79.716 82.2807 79.608 80.7122C79.515 79.3533 80.195 79.2421 81.308 79.2067C82.571 79.1674 82.843 79.6987 82.789 80.7949C82.715 82.2984 82.738 82.3299 81.162 82.3249" fill="#8343E8"/>
<path d="M99.526 80.7496C99.526 79.2608 99.567 79.3199 101.155 79.2136C102.523 79.1221 102.663 79.7686 102.693 80.8746C102.726 82.1045 102.218 82.3978 101.093 82.3426C99.56 82.2689 99.526 82.2925 99.53 80.7496" fill="#8343E8"/>
<path d="M120.965 82.3249C119.439 82.3249 119.498 82.2875 119.391 80.7358C119.3 79.4075 119.919 79.2274 121.064 79.2057C122.294 79.1821 122.627 79.6426 122.564 80.7712C122.487 82.2905 122.512 82.3279 120.965 82.3249Z" fill="#8343E8"/>
<path d="M140.912 79.2402C142.419 79.2402 142.36 79.2825 142.468 80.848C142.561 82.2 141.894 82.324 140.776 82.3584C139.521 82.3938 139.235 81.8802 139.29 80.7752C139.364 79.2707 139.342 79.2353 140.912 79.2402Z" fill="#8343E8"/>
<path d="M160.861 79.2805C162.304 78.943 162.292 79.8345 162.361 80.8854C162.461 82.2826 161.693 82.3033 160.627 82.3554C159.316 82.4194 159.204 81.7857 159.164 80.7388C159.115 79.4537 159.631 79.0365 160.858 79.2805" fill="#8343E8"/>
<path d="M182.184 80.8755C182.525 82.2944 181.625 82.3013 180.554 82.3515C179.292 82.4125 179.018 81.8694 179.074 80.7693C179.147 79.2746 179.139 79.3051 180.703 79.2156C182.011 79.1408 182.429 79.6682 182.184 80.8736" fill="#8343E8"/>
<path d="M21.285 101.907C20.043 102.202 19.992 101.364 19.927 100.282C19.844 98.9049 20.551 98.8341 21.643 98.7908C22.927 98.7396 23.161 99.3083 23.11 100.39C23.04 101.884 23.061 101.914 21.285 101.907Z" fill="#8343E8"/>
<path d="M41.528 101.869C40.322 102.101 39.751 101.73 39.828 100.423C39.921 98.8616 39.876 98.8754 41.389 98.8075C42.481 98.7593 43.089 98.9748 43.013 100.247C42.949 101.28 42.991 102.205 41.528 101.869Z" fill="#8343E8"/>
<path d="M62.82 100.403C63.179 101.911 62.24 101.862 61.191 101.937C59.754 102.035 59.772 101.248 59.714 100.218C59.639 98.9059 60.322 98.8213 61.369 98.7947C62.647 98.7642 63.152 99.2129 62.82 100.403Z" fill="#8343E8"/>
<path d="M82.767 100.607C83.067 101.837 82.205 101.875 81.113 101.94C79.713 102.024 79.648 101.316 79.602 100.246C79.547 98.9758 80.14 98.7583 81.232 98.8065C82.747 98.8744 82.776 98.8547 82.767 100.607Z" fill="#8343E8"/>
<path d="M101.328 98.8242C102.553 98.5389 102.633 99.3457 102.694 100.441C102.77 101.805 102.088 101.904 100.984 101.94C99.716 101.983 99.455 101.442 99.509 100.347C99.582 98.8468 99.556 98.8173 101.328 98.8242Z" fill="#8343E8"/>
<path d="M121.018 98.8232C122.53 98.8232 122.469 98.8626 122.577 100.426C122.67 101.773 122.014 101.912 120.89 101.941C119.641 101.974 119.344 101.473 119.399 100.361C119.474 98.8528 119.45 98.8193 121.018 98.8232Z" fill="#8343E8"/>
<path d="M141.124 98.8242C142.38 98.529 142.406 99.3851 142.474 100.456C142.561 101.833 141.834 101.893 140.751 101.939C139.451 101.996 139.243 101.404 139.292 100.333C139.36 98.8459 139.343 98.8154 141.124 98.8242Z" fill="#8343E8"/>
<path d="M162.332 100.62C162.632 101.873 161.732 101.869 160.665 101.939C159.249 102.032 159.22 101.287 159.165 100.233C159.102 98.9453 159.731 98.7573 160.807 98.8075C162.307 98.8724 162.339 98.8596 162.329 100.62" fill="#8343E8"/>
<path d="M179.092 100.327C179.098 98.8508 179.145 98.9029 180.733 98.7967C182.114 98.7042 182.223 99.3782 182.258 100.469C182.299 101.71 181.763 101.98 180.647 101.927C179.119 101.855 179.086 101.877 179.092 100.329" fill="#8343E8"/>
<path d="M21.418 121.452C19.953 121.79 19.996 120.861 19.933 119.831C19.855 118.56 20.464 118.341 21.557 118.391C23.071 118.458 23.025 118.444 23.117 120.006C23.195 121.313 22.625 121.685 21.418 121.452Z" fill="#8343E8"/>
<path d="M39.853 119.907C39.858 118.431 39.898 118.486 41.49 118.38C42.87 118.287 42.985 118.955 43.019 120.052C43.058 121.293 42.526 121.565 41.407 121.512C39.881 121.439 39.848 121.462 39.853 119.911" fill="#8343E8"/>
<path d="M62.876 119.955C62.876 121.463 62.842 121.495 61.276 121.49C59.77 121.49 59.808 121.45 59.724 119.882C59.66 118.683 60.124 118.328 61.29 118.387C62.844 118.464 62.881 118.436 62.88 119.955" fill="#8343E8"/>
<path d="M79.636 119.717C79.346 118.511 80.166 118.432 81.278 118.371C82.664 118.295 82.764 118.968 82.801 120.054C82.844 121.301 82.301 121.561 81.185 121.508C79.663 121.436 79.629 121.457 79.636 119.717Z" fill="#8343E8"/>
<path d="M99.526 119.906C99.526 118.43 99.571 118.486 101.164 118.38C102.545 118.287 102.657 118.957 102.692 120.052C102.732 121.294 102.192 121.563 101.079 121.51C99.552 121.438 99.52 121.462 99.526 119.908" fill="#8343E8"/>
<path d="M122.549 120.203C122.849 121.455 121.957 121.467 120.882 121.519C119.621 121.579 119.345 121.037 119.4 119.936C119.474 118.436 119.453 118.401 121.026 118.406C122.526 118.406 122.559 118.444 122.549 120.203Z" fill="#8343E8"/>
<path d="M140.868 121.491C139.337 121.491 139.303 121.457 139.308 119.917C139.313 118.433 139.349 118.472 140.942 118.389C142.16 118.326 142.521 118.782 142.461 119.93C142.382 121.461 142.411 121.497 140.868 121.496" fill="#8343E8"/>
<path d="M160.748 121.491C159.222 121.491 159.281 121.454 159.174 119.902C159.083 118.575 159.701 118.394 160.846 118.372C162.077 118.348 162.41 118.809 162.352 119.937C162.275 121.457 162.299 121.494 160.752 121.491" fill="#8343E8"/>
<path d="M179.091 119.91C179.097 118.434 179.142 118.486 180.731 118.38C182.112 118.287 182.222 118.96 182.258 120.052C182.298 121.293 181.763 121.564 180.646 121.511C179.118 121.438 179.085 121.461 179.091 119.912" fill="#8343E8"/>
<path d="M19.961 139.489C19.961 138.013 20.006 138.069 21.6 137.963C22.981 137.871 23.093 138.541 23.128 139.636C23.168 140.878 22.628 141.147 21.514 141.094C19.988 141.021 19.956 141.045 19.961 139.491" fill="#8343E8"/>
<path d="M42.984 139.769C43.278 140.988 42.436 141.049 41.336 141.108C39.941 141.188 39.863 140.495 39.819 139.418C39.767 138.155 40.345 137.923 41.443 137.974C42.963 138.041 42.992 138.02 42.984 139.769Z" fill="#8343E8"/>
<path d="M62.836 139.639C63.18 141.081 62.236 141.039 61.19 141.102C59.898 141.178 59.678 140.576 59.727 139.502C59.796 138.012 59.782 138.057 61.369 137.967C62.697 137.89 63.069 138.453 62.836 139.639Z" fill="#8343E8"/>
<path d="M81.092 141.034C79.628 141.371 79.67 140.443 79.607 139.412C79.529 138.14 80.14 137.924 81.231 137.973C82.745 138.041 82.699 138.026 82.791 139.588C82.868 140.895 82.299 141.267 81.092 141.034Z" fill="#8343E8"/>
<path d="M102.66 139.538C102.66 141.047 102.625 141.078 101.054 141.074C99.554 141.069 99.587 141.034 99.503 139.464C99.438 138.265 99.903 137.911 101.069 137.969C102.624 138.047 102.66 138.018 102.66 139.543" fill="#8343E8"/>
<path d="M121.093 138.029C122.555 137.691 122.516 138.613 122.578 139.648C122.655 140.919 122.048 141.138 120.955 141.089C119.441 141.021 119.486 141.036 119.394 139.474C119.317 138.167 119.885 137.795 121.093 138.029Z" fill="#8343E8"/>
<path d="M140.766 141.034C139.302 141.372 139.344 140.443 139.281 139.413C139.203 138.141 139.813 137.924 140.905 137.973C142.419 138.041 142.373 138.026 142.465 139.588C142.542 140.895 141.972 141.266 140.765 141.034" fill="#8343E8"/>
<path d="M162.333 139.55C162.333 141.054 162.303 141.08 160.717 141.074C159.224 141.068 159.262 141.028 159.176 139.454C159.111 138.238 159.609 137.914 160.756 137.97C162.3 138.046 162.336 138.021 162.333 139.55Z" fill="#8343E8"/>
<path d="M180.382 141.072C179.082 141.372 179.125 140.448 179.063 139.414C178.988 138.145 179.598 137.924 180.69 137.974C182.199 138.04 182.231 138.024 182.224 139.591C182.217 141.049 182.179 141.083 180.382 141.072Z" fill="#8343E8"/>
<path d="M21.577 157.572C23.07 157.578 23.013 157.62 23.121 159.192C23.215 160.56 22.521 160.649 21.421 160.691C20.144 160.738 19.896 160.184 19.948 159.096C20.018 157.596 19.996 157.567 21.581 157.572" fill="#8343E8"/>
<path d="M41.452 157.572C42.964 157.572 42.903 157.612 43.012 159.175C43.105 160.522 42.449 160.661 41.325 160.691C40.076 160.723 39.778 160.223 39.834 159.116C39.909 157.607 39.885 157.573 41.452 157.577" fill="#8343E8"/>
<path d="M62.836 159.222C63.179 160.661 62.241 160.622 61.19 160.684C59.898 160.76 59.678 160.16 59.727 159.085C59.796 157.594 59.781 157.639 61.368 157.549C62.695 157.473 63.073 158.033 62.836 159.222Z" fill="#8343E8"/>
<path d="M81.239 157.572C82.746 157.577 82.687 157.614 82.794 159.18C82.888 160.532 82.221 160.656 81.103 160.691C79.848 160.726 79.561 160.213 79.616 159.106C79.69 157.602 79.668 157.567 81.239 157.572Z" fill="#8343E8"/>
<path d="M102.658 159.344C102.946 160.545 102.134 160.633 101.018 160.692C99.635 160.765 99.529 160.101 99.493 159.01C99.451 157.765 99.993 157.502 101.108 157.555C102.634 157.628 102.665 157.604 102.658 159.344Z" fill="#8343E8"/>
<path d="M122.55 159.147C122.55 160.636 122.51 160.576 120.922 160.683C119.554 160.774 119.413 160.128 119.383 159.022C119.35 157.793 119.858 157.499 120.983 157.554C122.516 157.628 122.549 157.603 122.545 159.147" fill="#8343E8"/>
<path d="M140.868 160.657C139.337 160.657 139.304 160.623 139.308 159.078C139.313 157.594 139.349 157.632 140.942 157.55C142.159 157.487 142.521 157.943 142.461 159.092C142.382 160.622 142.41 160.657 140.868 160.657Z" fill="#8343E8"/>
<path d="M162.332 159.346C162.622 160.551 161.802 160.631 160.69 160.692C159.305 160.766 159.204 160.094 159.167 159.008C159.125 157.761 159.667 157.503 160.784 157.555C162.306 157.628 162.339 157.605 162.332 159.346Z" fill="#8343E8"/>
<path d="M180.413 160.656C179.167 160.951 179.121 160.108 179.058 159.031C178.978 157.653 179.689 157.584 180.78 157.54C182.072 157.488 182.29 158.072 182.241 159.145C182.173 160.636 182.193 160.664 180.413 160.656Z" fill="#8343E8"/>
<path d="M23.092 178.942C23.392 180.179 22.52 180.205 21.434 180.272C20.029 180.359 19.976 179.639 19.928 178.575C19.871 177.296 20.472 177.091 21.56 177.139C23.07 177.207 23.101 177.189 23.092 178.942Z" fill="#8343E8"/>
<path d="M42.945 178.806C43.288 180.246 42.345 180.205 41.299 180.267C40.006 180.344 39.787 179.741 39.836 178.668C39.905 177.179 39.891 177.223 41.478 177.133C42.807 177.056 43.178 177.619 42.945 178.806Z" fill="#8343E8"/>
<path d="M62.876 178.739C62.87 180.215 62.831 180.16 61.238 180.266C59.857 180.358 59.745 179.687 59.709 178.593C59.669 177.351 60.209 177.082 61.322 177.136C62.849 177.209 62.882 177.186 62.876 178.737" fill="#8343E8"/>
<path d="M82.727 178.789C83.068 180.209 82.165 180.2 81.097 180.271C79.677 180.369 79.656 179.612 79.604 178.563C79.538 177.272 80.182 177.161 81.244 177.122C82.55 177.075 82.975 177.581 82.727 178.789Z" fill="#8343E8"/>
<path d="M99.526 178.656C99.526 177.18 99.57 177.235 101.163 177.129C102.542 177.036 102.663 177.704 102.693 178.802C102.731 180.041 102.199 180.315 101.08 180.262C99.555 180.189 99.521 180.211 99.526 178.66" fill="#8343E8"/>
<path d="M122.51 178.804C122.852 180.242 121.91 180.194 120.866 180.269C119.43 180.367 119.446 179.58 119.388 178.549C119.314 177.239 119.999 177.171 121.042 177.124C122.368 177.065 122.748 177.616 122.51 178.804Z" fill="#8343E8"/>
<path d="M142.44 178.954C142.74 180.21 141.84 180.2 140.77 180.271C139.35 180.369 139.33 179.611 139.277 178.563C139.212 177.272 139.848 177.094 140.92 177.14C142.42 177.205 142.451 177.195 142.44 178.954Z" fill="#8343E8"/>
<path d="M159.2 178.458C158.9 177.235 159.752 177.186 160.85 177.121C162.25 177.039 162.322 177.736 162.366 178.812C162.417 180.075 161.839 180.306 160.741 180.256C159.223 180.187 159.193 180.208 159.2 178.458Z" fill="#8343E8"/>
<path d="M180.639 180.24C179.113 180.24 179.085 180.209 179.091 178.651C179.097 177.184 179.143 177.217 180.739 177.133C181.973 177.068 182.301 177.561 182.239 178.688C182.162 180.205 182.186 180.242 180.639 180.24Z" fill="#8343E8"/>
</g>
</svg>
