<svg width="21" height="17" viewBox="0 0 21 17" fill="none" xmlns="http://www.w3.org/2000/svg">
<path d="M18.75 0C19.3359 0 19.8242 0.211589 20.2148 0.634766C20.638 1.02539 20.8496 1.51367 20.8496 2.09961V14.5996C20.8496 15.1855 20.638 15.6901 20.2148 16.1133C19.8242 16.5039 19.3359 16.6992 18.75 16.6992H2.09961C1.51367 16.6992 1.00911 16.5039 0.585938 16.1133C0.195312 15.6901 0 15.1855 0 14.5996V2.09961C0 1.51367 0.195312 1.02539 0.585938 0.634766C1.00911 0.211589 1.51367 0 2.09961 0H18.75ZM18.75 4.19922V2.09961L10.4004 7.32422L2.09961 2.09961V4.19922L10.4004 9.375L18.75 4.19922Z" fill="white"/>
</svg>
