<svg width="30" height="20" viewBox="0 0 30 23" fill="none" xmlns="http://www.w3.org/2000/svg">
<path d="M23.4357 22.7171C23.5683 22.5309 23.6929 22.3622 23.8109 22.1887C24.4175 21.3101 25.0257 20.4315 25.6274 19.5513C25.697 19.4495 25.7746 19.4129 25.896 19.432C26.1742 19.4749 26.4524 19.5116 26.7306 19.5498C26.8018 19.5593 26.8843 19.5959 26.9377 19.5275C26.9862 19.467 26.9328 19.4001 26.9053 19.3428C26.564 18.6043 26.2923 17.8372 25.9752 17.0875C25.9574 17.0461 25.9186 17.0016 25.9574 16.9602C25.9995 16.9172 26.0464 16.9538 26.082 16.9809C26.454 17.2769 26.9085 17.382 27.3534 17.5013C27.8985 17.6478 28.4242 17.8403 28.9337 18.0791C29.6179 18.399 29.9592 18.9418 29.9867 19.6803C29.9964 19.9238 29.9916 20.1689 29.9997 20.4124C30.0045 20.5429 29.9528 20.6289 29.846 20.71C28.2495 21.9197 26.4378 22.6009 24.445 22.8365C22.504 23.0656 20.6567 22.7314 18.879 21.9563C18.1333 21.6316 17.4346 21.2353 16.794 20.7355C16.6727 20.64 16.6129 20.5366 16.6177 20.3838C16.6258 20.1402 16.6209 19.8951 16.6177 19.6516C16.608 18.9784 16.9218 18.4834 17.509 18.1682C17.9554 17.9279 18.4229 17.7321 18.9211 17.6048C19.5228 17.452 20.1262 17.2944 20.6389 16.9124C20.6907 17 20.6325 17.062 20.6082 17.1241C20.3073 17.8722 20.0016 18.6187 19.6959 19.3651C19.6183 19.5545 19.6409 19.5864 19.8512 19.5577C20.1229 19.5211 20.3963 19.4861 20.6648 19.4304C20.8072 19.4001 20.8945 19.4431 20.9705 19.5529C21.6208 20.4904 22.2726 21.4263 22.9245 22.3622C23.0022 22.4752 23.0814 22.5866 23.1914 22.7441C23.1866 22.4752 23.1008 22.2826 23.0426 22.0852C22.5735 20.4681 22.1012 18.8526 21.624 17.2387C21.5173 16.8758 21.5302 16.5066 21.5431 16.1389C21.5496 15.9559 21.4865 15.9033 21.3021 15.9017C20.5386 15.8938 19.7913 15.7935 19.1039 15.4322C18.8968 15.3224 18.6995 15.1983 18.5345 15.0295C18.4488 14.942 18.4552 14.8895 18.5798 14.8513C18.8208 14.7781 18.9923 14.6141 19.1281 14.4104C19.4905 13.8645 19.6247 13.2501 19.6797 12.6119C19.7299 12.0134 19.7024 11.4118 19.7234 10.8117C19.7509 10.0525 19.8366 9.2981 20.144 8.58824C20.6389 7.43908 21.582 6.89634 22.7935 6.73559C23.4405 6.64964 24.0131 6.83745 24.5178 7.23376C24.6197 7.31334 24.7281 7.33722 24.8543 7.33563C25.6921 7.32289 26.2858 7.70011 26.6513 8.43703C26.936 9.01002 27.0331 9.62438 27.1107 10.2499C27.2175 11.1094 27.0282 11.9609 27.0703 12.8172C27.0978 13.3854 27.2175 13.9265 27.5539 14.4056C27.6866 14.595 27.8548 14.7415 28.0521 14.8592C28.2301 14.9659 28.2349 14.9882 28.0699 15.1139C27.5297 15.5261 26.9037 15.7283 26.2389 15.8222C25.9542 15.862 25.6663 15.8827 25.38 15.9033C25.2781 15.9113 25.2036 15.9336 25.215 16.0482C25.3153 16.965 24.9222 17.7799 24.665 18.6218C24.2671 19.9301 23.8465 21.2305 23.4373 22.534C23.4211 22.5834 23.3936 22.6327 23.4373 22.7187L23.4357 22.7171Z" fill="white"/>
<path d="M11.0566 9.93953C11.0485 10.4839 10.987 10.9216 10.8964 11.3545C10.8706 11.4802 10.8754 11.5837 10.9709 11.6808C11.1391 11.8527 11.165 12.0723 11.1245 12.292C11.0388 12.7663 10.911 13.2326 10.6845 13.6639C10.5956 13.8342 10.4969 13.9998 10.2608 14.0125C10.1491 14.0189 10.1491 14.1319 10.1313 14.2115C10.0505 14.5743 9.92916 14.9213 9.76578 15.2556C8.81952 17.2053 6.20233 17.2578 4.94388 15.7967C4.50552 15.2874 4.29201 14.681 4.15937 14.0412C4.13672 13.9313 4.10599 13.8406 4.00732 13.7769C3.92159 13.7212 3.86174 13.6401 3.81321 13.5525C3.52367 13.0368 3.35868 12.4845 3.33604 11.894C3.32795 11.6712 3.40235 11.4898 3.63366 11.407C3.7388 11.3688 3.75498 11.3083 3.72748 11.2065C3.35383 9.81857 3.84395 8.7108 4.89212 7.79402C5.41782 7.33405 5.98881 6.92818 6.6973 6.80403C7.93634 6.58917 9.01201 6.87884 9.81916 7.88793C9.86607 7.94523 9.91136 8.00253 9.98577 8.0264C10.5956 8.21581 10.8285 8.70125 10.9676 9.25354C11.0323 9.5098 11.0695 9.77082 11.0582 9.93635L11.0566 9.93953Z" fill="white"/>
<path d="M8.30839 21.1111C8.39897 20.8374 8.49602 20.5652 8.57852 20.2883C8.95541 19.0293 9.37273 17.783 9.7755 16.5336C9.82079 16.3904 9.87579 16.3729 10.002 16.4509C11 17.07 12.0643 17.5427 13.2063 17.8483C13.8388 18.017 14.2108 18.4515 14.392 19.0579C14.4567 19.2728 14.489 19.4956 14.5262 19.7169C14.5489 19.8522 14.5084 19.9445 14.4146 20.0336C12.9734 21.4008 11.2814 22.2969 9.30965 22.6757C7.99297 22.9288 6.67143 22.9686 5.35636 22.7107C4.03321 22.4497 2.78608 21.9738 1.6441 21.2528C1.07634 20.8947 0.582985 20.449 0.0815457 20.0129C0.0168439 19.9556 -0.00418423 19.884 0.000668408 19.7996C0.0589001 18.7905 0.472992 18.06 1.4694 17.8021C2.55963 17.5204 3.57383 17.0573 4.51524 16.4461C4.68832 16.3347 4.7142 16.4381 4.75464 16.5655C5.20432 17.9804 5.65723 19.3954 6.11014 20.8103C6.12955 20.874 6.15058 20.9361 6.17323 20.9981C6.18617 21.0347 6.19264 21.0825 6.24116 21.0841C6.28969 21.0857 6.30263 21.0395 6.31557 21.0029C6.48218 20.5366 6.64717 20.0702 6.81701 19.6039C6.84774 19.5195 6.80407 19.4654 6.76525 19.4049C6.61643 19.1694 6.46277 18.937 6.35601 18.6791C6.06647 17.9756 6.35116 17.522 7.11949 17.4663C7.34271 17.4504 7.56108 17.4775 7.77298 17.5507C8.16281 17.6844 8.34074 17.9884 8.25986 18.3879C8.19354 18.7253 8.0334 19.0229 7.82959 19.2951C7.7196 19.4415 7.6921 19.5784 7.75842 19.7519C7.92988 20.2007 8.08678 20.6559 8.24854 21.1079C8.26795 21.1079 8.28736 21.1111 8.30677 21.1127L8.30839 21.1111Z" fill="white"/>
<path d="M15.7734 0.0030064C16.4705 0.0030064 17.1677 0.0030064 17.8649 0.0030064C19.2495 0.00459803 20.2685 0.93729 20.3316 2.3029C20.3623 2.97934 20.3834 3.66215 20.3122 4.33859C20.2038 5.35405 19.4096 6.18169 18.3906 6.36154C18.211 6.39338 18.0315 6.40134 17.8503 6.40134C16.4689 6.40134 15.0875 6.39974 13.7061 6.40134C13.3648 6.40134 13.0381 6.34881 12.7291 6.20875C12.6078 6.15304 12.5075 6.15782 12.3927 6.23103C11.9899 6.48569 11.5435 6.57641 11.0679 6.55572C11.034 6.55572 11 6.55572 10.9676 6.54777C10.8512 6.51912 10.6991 6.50638 10.6619 6.3886C10.6215 6.25809 10.7751 6.21193 10.8641 6.15304C11.1488 5.96364 11.3591 5.71375 11.5305 5.42408C11.5985 5.30948 11.6049 5.20921 11.5402 5.09143C11.3429 4.73013 11.2523 4.34496 11.2636 3.93113C11.2766 3.41067 11.2653 2.88862 11.2669 2.36816C11.2701 1.03915 12.3118 0.00618965 13.6592 0.00141478C14.3629 -0.00176847 15.0665 0.00141478 15.7718 0.00141478L15.7734 0.0030064ZM14.2529 3.18625C14.2513 2.7597 13.9601 2.46843 13.5412 2.47162C13.1238 2.4748 12.8197 2.78039 12.8246 3.19103C12.8294 3.59212 13.1465 3.88975 13.567 3.88498C13.9666 3.8802 14.2545 3.58575 14.2529 3.18785V3.18625ZM16.5029 3.22764C16.5061 2.83132 16.2117 2.52414 15.8267 2.52096C15.4207 2.51777 15.0843 2.84087 15.0891 3.22764C15.094 3.61281 15.4013 3.91681 15.7895 3.92158C16.1923 3.92636 16.4996 3.62713 16.5029 3.22764ZM18.0476 3.96615C18.4407 3.96774 18.7497 3.67011 18.7545 3.28334C18.7594 2.8918 18.4391 2.56075 18.0573 2.56075C17.6627 2.56075 17.3553 2.8727 17.3569 3.27379C17.3569 3.67329 17.6481 3.96456 18.0476 3.96615Z" fill="white"/>
</svg>
