<svg width="15" height="21" viewBox="0 0 15 21" fill="none" xmlns="http://www.w3.org/2000/svg">
<path d="M2.09961 2.14844C3.5319 0.716146 5.25716 0 7.27539 0C9.29362 0 11.0189 0.716146 12.4512 2.14844C13.8835 3.54818 14.5996 5.25716 14.5996 7.27539C14.5996 8.2845 14.3392 9.45638 13.8184 10.791C13.3301 12.0931 12.7279 13.3138 12.0117 14.4531C11.2956 15.5599 10.5794 16.6178 9.86328 17.627C9.14714 18.6035 8.54492 19.3848 8.05664 19.9707L7.27539 20.8008C7.08008 20.6055 6.81966 20.3125 6.49414 19.9219C6.16862 19.5312 5.58268 18.7826 4.73633 17.6758C3.92253 16.5365 3.1901 15.446 2.53906 14.4043C1.88802 13.3301 1.30208 12.1257 0.78125 10.791C0.260417 9.45638 0 8.2845 0 7.27539C0 5.25716 0.69987 3.54818 2.09961 2.14844ZM5.41992 9.13086C5.94076 9.61914 6.55924 9.86328 7.27539 9.86328C7.99154 9.86328 8.61003 9.61914 9.13086 9.13086C9.65169 8.61003 9.91211 7.99154 9.91211 7.27539C9.91211 6.55924 9.65169 5.95703 9.13086 5.46875C8.61003 4.94792 7.99154 4.6875 7.27539 4.6875C6.55924 4.6875 5.94076 4.94792 5.41992 5.46875C4.93164 5.95703 4.6875 6.55924 4.6875 7.27539C4.6875 7.99154 4.93164 8.61003 5.41992 9.13086Z" fill="white"/>
</svg>
