<svg width="15" height="24" viewBox="0 0 15 24" fill="none" xmlns="http://www.w3.org/2000/svg">
<path d="M11.4746 0.150391C12.321 0.150391 13.0534 0.459635 13.6719 1.07812C14.2904 1.69661 14.5996 2.42904 14.5996 3.27539V19.9746C14.5996 20.821 14.2904 21.5534 13.6719 22.1719C13.0534 22.7904 12.321 23.0996 11.4746 23.0996H3.125C2.24609 23.0996 1.4974 22.7904 0.878906 22.1719C0.292969 21.5534 0 20.821 0 19.9746V3.27539C0 2.42904 0.292969 1.69661 0.878906 1.07812C1.4974 0.459635 2.24609 0.150391 3.125 0.150391H11.4746ZM9.375 21V19.9746H5.22461V21H9.375ZM12.7441 17.875V3.27539H1.80664V17.875H12.7441Z" fill="white"/>
</svg>
