<svg width="30" height="30" viewBox="0 0 30 30" fill="none" xmlns="http://www.w3.org/2000/svg">
<circle cx="15" cy="15" r="15" fill="#D31A1A"/>
<path d="M22.6425 11.8883C22.7596 12.7425 22.8182 13.5845 22.8182 14.4142V15.5857L22.6425 18.1116C22.5488 18.8194 22.3498 19.3319 22.0453 19.6491C21.7175 19.9908 21.2257 20.2104 20.5699 20.3081C19.9376 20.3569 19.1765 20.3935 18.2865 20.4179C17.42 20.4423 16.7057 20.4545 16.1437 20.4545H15.3006C12.7011 20.4301 11.0032 20.3813 10.2069 20.3081C10.2069 20.3081 10.1132 20.2959 9.92589 20.2715C9.73854 20.2471 9.58631 20.2227 9.46921 20.1982C9.35212 20.1738 9.19989 20.1128 9.01254 20.0152C8.84861 19.9176 8.69638 19.7956 8.55587 19.6491C8.43877 19.5027 8.32167 19.3075 8.20458 19.0634C8.1109 18.795 8.05235 18.5631 8.02893 18.3679L7.95868 18.1116C7.865 17.2574 7.81816 16.4155 7.81816 15.5857V14.4142L7.95868 11.8883C8.05235 11.1806 8.25142 10.668 8.55587 10.3508C8.88373 9.9847 9.38725 9.76506 10.0664 9.69184C10.6987 9.64303 11.4481 9.60642 12.3146 9.58202C13.1812 9.55761 13.8954 9.54541 14.4575 9.54541H15.3006C17.4083 9.54541 19.1648 9.59422 20.5699 9.69184C21.2257 9.76506 21.7175 9.9847 22.0453 10.3508C22.139 10.4484 22.221 10.5704 22.2912 10.7169C22.3615 10.8389 22.42 10.9731 22.4669 11.1195C22.5137 11.2416 22.5488 11.3636 22.5723 11.4856C22.5957 11.6076 22.6191 11.7053 22.6425 11.7785V11.8883ZM17.3381 15.1098L17.8299 14.8535L13.7901 12.6571V17.05L17.3381 15.1098Z" fill="white"/>
</svg>
